<svg xmlns="http://www.w3.org/2000/svg" width="600" height="600" viewBox="0 0 600 600">
  <defs>
    <style>
      .cls-1 {
        fill: #a57647;
      }

      .cls-1, .cls-2, .cls-3 {
        fill-rule: evenodd;
      }

      .cls-2 {
        fill: #cb935a;
      }

      .cls-3 {
        fill: #a97949;
      }
    </style>
  </defs>
  <path id="Rectangle_1_copy_4" data-name="Rectangle 1 copy 4" class="cls-1" d="M284.818,7h31.364V271H284.818V7Zm-0.006,323h31.375V594H284.812V330ZM496.946,81.877l22.177,22.177L332.45,290.727,310.273,268.55Zm-228.4,228.39,22.185,22.185L104.057,519.129,81.871,496.943ZM594,284.818v31.364H330V284.818H594Zm-323-.006v31.375H7V284.812H271ZM519.123,496.946l-22.177,22.177L310.273,332.45l22.177-22.177Zm-228.39-228.4-22.185,22.185L81.871,104.057l22.186-22.186Z"/>
  <path id="Ellipse_5_copy" data-name="Ellipse 5 copy" class="cls-1" d="M300,600C134.316,600,0,465.684,0,300S134.316,0,300,0,600,134.316,600,300,465.684,600,300,600Zm0-551.453C161.124,48.544,48.544,161.124,48.544,300S161.124,551.456,300,551.456,551.456,438.876,551.456,300,438.876,48.544,300,48.544Z"/>
  <path class="cls-2" d="M300,591.094C139.233,591.094,8.906,460.767,8.906,300S139.233,8.906,300,8.906,591.094,139.233,591.094,300,460.767,591.094,300,591.094Zm0-553.446C155.107,37.648,37.648,155.107,37.648,300S155.107,562.352,300,562.352,562.352,444.893,562.352,300,444.893,37.648,300,37.648Z"/>
  <path id="Ellipse_1_copy_2" data-name="Ellipse 1 copy 2" class="cls-3" d="M300,251.545A48.455,48.455,0,1,1,251.545,300,48.455,48.455,0,0,1,300,251.545Zm0,39.9a9.092,9.092,0,1,1-9.1,9.092A9.094,9.094,0,0,1,300,291.442ZM163,250"/>
  <path class="cls-2" d="M291,27.406h18V266.594H291V27.406Zm0,307h18V573.594H291V334.406ZM486.742,101.03l12.728,12.727L330.339,282.889l-12.728-12.728ZM269.661,318.111l12.728,12.728L113.257,499.97,100.53,487.242ZM573.094,291.5v18H333.906v-18H573.094Zm-307,0v18H26.906v-18H266.094ZM499.47,487.242L486.742,499.97,317.611,330.839l12.728-12.728ZM282.389,270.161l-12.728,12.728L100.53,113.757l12.727-12.727Z"/>
  <path id="Ellipse_1_copy_3" data-name="Ellipse 1 copy 3" class="cls-2" d="M300,257.011A42.988,42.988,0,1,1,257,300,43,43,0,0,1,300,257.011ZM300,284a17,17,0,1,1-17,17A17,17,0,0,1,300,284Z"/>
</svg>
